<svg xmlns="http://www.w3.org/2000/svg" width="800" height="800"><path fill="#C1C1C1" d="M1 0h800v800H1z"/><path fill="#FFF" d="M166.162 601.408c0-40.841 37.118-73.23 84.095-73.23h300.621c46.976 0 83.962 32.39 83.962 73.23v266.756H166.162V601.408z"/><path fill="#F7C19C" d="M569.624 494.654c0 38.289-30.998 70.913-65.153 70.913H285.877c-34.163 0-55.37-32.624-55.37-70.913V254.276h339.117v240.378z"/><path fill="#FFF" d="M342.435 346.446H297.46v40.801s2.541 23.543 24.208 23.543h24.389c21.66 0 26.183-23.543 26.183-23.543v-40.801h-29.805zm132.314 0H428.76v40.801s3.556 23.543 25.224 23.543h24.389c21.662 0 26.906-23.543 26.906-23.543v-40.801h-30.53z"/><path fill="#632F1A" d="M297.46 336.011h81.736v10.435H297.46zm123.474 0h84.345v10.435h-84.345z"/><path d="M569.624 157.303c0-23.773-2.088-37.805-32.339-37.805H255.51c-30.265 0-25.003 14.032-25.003 37.805v96.972h339.117v-96.972z"/><path fill="#C1947A" d="M382.675 425.573h32.173v6.956h-32.173z"/><path fill="#DDAC8C" d="M297.46 306.448h206.079v5.217H297.46zm24.348-13.043h157.385v5.217H321.808z"/><path fill="#1A1A1A" d="M230.507 201.234h339.117v35.651H230.507z"/><path fill="#632F1A" d="M544.407 269.057h25.217v126.082h-25.217zm-313.9 0h25.216v126.082h-25.216z"/><path d="M349.632 383.178a5.005 5.005 0 0 1-5.006 5.005h-17.812a5.005 5.005 0 0 1-5.006-5.005v-17.813a5.006 5.006 0 0 1 5.006-5.006h17.812a5.006 5.006 0 0 1 5.006 5.006v17.813zm128.691 0a5.006 5.006 0 0 1-5.007 5.005h-17.812a5.006 5.006 0 0 1-5.007-5.005v-17.813a5.007 5.007 0 0 1 5.007-5.006h17.812a5.007 5.007 0 0 1 5.007 5.006v17.813z"/><path fill="#C1947A" d="M212.247 365.575h18.26v42.607h-18.26zm357.377 0h18.26v42.607h-18.26z"/><path fill="#632F1A" d="M307.043 507.308h186.158s0-45.881-93.074-45.881c-93.084 0-93.084 45.881-93.084 45.881z"/><path d="M626.003 253.417c0-8.608-5.946-15.663-15.511-15.663H189.639s-.286-.037-.349-.037c-8.671 0-15.779 7.015-15.779 15.685s7.15 15.691 15.819 15.691c.063 0 .309-.015.309-.016v-.021h420.854v.021c9.564-.101 15.51-7.054 15.51-15.66z"/><path fill="#D1D1D1" d="M453.106 642.956h80.866v5.217h-80.866z"/><path fill="#93242C" d="M375.718 585.566h49.563L400.5 626.723z"/><path fill="#93242C" d="M400.5 600.637l-21.304 169.268 20.434 31.884 20.434-31.303z"/><path fill="#FFF" d="M370.211 608.463l29.854-30.831-122.983-.649zm60.288.109l-30.434-30.831h107.789z"/><path fill="#F4F4F4" d="M240.941 682.085h6.087v50.433h-6.087zm311.292 0h6.087v50.433h-6.087z"/></svg>