<?xml version="1.0" encoding="utf-8"?>
<!-- Generator: Adobe Illustrator 16.0.0, SVG Export Plug-In . SVG Version: 6.00 Build 0)  -->
<!DOCTYPE svg PUBLIC "-//W3C//DTD SVG 1.1//EN" "http://www.w3.org/Graphics/SVG/1.1/DTD/svg11.dtd">
<svg version="1.1" id="Layer_1" xmlns="http://www.w3.org/2000/svg" xmlns:xlink="http://www.w3.org/1999/xlink" x="0px" y="0px"
	 width="219px" height="218.821px" viewBox="100.265 198.716 219 218.821" enable-background="new 100.265 198.716 219 218.821"
	 xml:space="preserve">
<g>
	<g>
		<path fill="#ECB32D" d="M233.972,236.535c-2.546-7.641-10.723-11.796-18.364-9.383c-7.64,2.547-11.795,10.723-9.383,18.364
			l37.666,115.813c2.548,7.104,10.321,11.125,17.694,8.98c7.774-2.278,12.465-10.455,9.919-17.961
			C271.504,352.081,233.972,236.535,233.972,236.535z"/>
		<path fill="#63C1A0" d="M175.664,255.435c-2.546-7.64-10.723-11.795-18.364-9.383c-7.64,2.547-11.795,10.723-9.382,18.364
			l37.666,115.812c2.547,7.105,10.321,11.126,17.693,8.981c7.773-2.278,12.467-10.456,9.919-17.962
			C213.196,370.98,175.664,255.435,175.664,255.435z"/>
		<path fill="#E01A59" d="M281.423,332.375c7.64-2.547,11.796-10.723,9.384-18.363c-2.548-7.642-10.725-11.796-18.364-9.384
			l-115.946,37.801c-7.104,2.546-11.126,10.321-8.981,17.693c2.279,7.773,10.455,12.467,17.961,9.919
			C165.745,370.042,281.423,332.375,281.423,332.375z"/>
		<path fill="#331433" d="M180.624,365.215c7.506-2.412,17.292-5.629,27.746-8.98c-2.413-7.506-5.629-17.292-8.98-27.746
			l-27.747,8.98L180.624,365.215z"/>
		<path fill="#D62027" d="M239.066,346.181c10.456-3.351,20.24-6.567,27.746-8.98c-2.412-7.506-5.629-17.291-8.98-27.746
			l-27.746,8.98L239.066,346.181z"/>
		<path fill="#89D3DF" d="M262.389,274.067c7.641-2.547,11.796-10.724,9.384-18.364c-2.548-7.641-10.725-11.796-18.364-9.383
			l-115.813,37.666c-7.104,2.547-11.125,10.321-8.98,17.694c2.278,7.774,10.455,12.466,17.961,9.919
			C146.845,311.599,262.389,274.067,262.389,274.067z"/>
		<path fill="#258B74" d="M161.724,306.774c7.507-2.413,17.292-5.63,27.747-8.981c-3.351-10.455-6.568-20.24-8.981-27.747
			l-27.747,8.981L161.724,306.774z"/>
		<path fill="#819C3C" d="M220.032,287.874c10.456-3.351,20.24-6.568,27.747-8.981c-3.352-10.455-6.568-20.24-8.981-27.747
			l-27.747,8.981L220.032,287.874z"/>
	</g>
</g>
</svg>
