<?xml version="1.0" encoding="utf-8"?>
<!-- Generator: Adobe Illustrator 16.0.0, SVG Export Plug-In . SVG Version: 6.00 Build 0)  -->
<!DOCTYPE svg PUBLIC "-//W3C//DTD SVG 1.1//EN" "http://www.w3.org/Graphics/SVG/1.1/DTD/svg11.dtd">
<svg version="1.1" id="Layer_1" xmlns="http://www.w3.org/2000/svg" xmlns:xlink="http://www.w3.org/1999/xlink" x="0px" y="0px"
	 width="304px" height="304px" viewBox="0 0 304 304" enable-background="new 0 0 304 304" xml:space="preserve">
<title>Artboard 3 Copy 2</title>
<desc>Created with Sketch.</desc>
<g id="Page-1">
	<g id="Artboard-3-Copy-2">
		<path id="Combined-Shape" fill="#EB005A" d="M44.1,224c0.463-2.282,2.481-4,4.9-4c2.761,0,5,2.238,5,5s-2.239,5-5,5
			c-2.419,0-4.437-1.718-4.9-4H0v-2H44.1L44.1,224z M204.1,272c0.464-2.282,2.481-4,4.9-4c2.762,0,5,2.238,5,5s-2.238,5-5,5
			c-2.419,0-4.437-1.718-4.9-4H82v-2H204.1L204.1,272z M261.9,226c-0.464,2.282-2.481,4-4.9,4c-2.762,0-5-2.238-5-5s2.238-5,5-5
			c2.419,0,4.437,1.718,4.9,4H304v2H261.9L261.9,226z M261.9,242c-0.464,2.282-2.481,4-4.9,4c-2.762,0-5-2.238-5-5s2.238-5,5-5
			c2.419,0,4.437,1.718,4.9,4H304v2H261.9L261.9,242z M268.1,128c0.464-2.282,2.481-4,4.9-4c2.762,0,5,2.239,5,5s-2.238,5-5,5
			c-2.419,0-4.437-1.718-4.9-4H181.9c-0.464,2.282-2.481,4-4.9,4c-2.762,0-5-2.239-5-5s2.238-5,5-5c2.419,0,4.437,1.718,4.9,4H268.1
			L268.1,128z M12.1,80c0.463-2.282,2.481-4,4.9-4c2.761,0,5,2.239,5,5s-2.239,5-5,5c-2.419,0-4.437-1.718-4.9-4H0v-2H12.1L12.1,80z
			 M197.9,114c-0.464,2.282-2.481,4-4.9,4c-2.762,0-5-2.239-5-5s2.238-5,5-5c2.419,0,4.437,1.718,4.9,4H284.1
			c0.464-2.282,2.481-4,4.9-4c2.762,0,5,2.239,5,5s-2.238,5-5,5c-2.419,0-4.437-1.718-4.9-4H197.9L197.9,114z M258,12.1
			c2.282,0.463,4,2.481,4,4.9c0,2.761-2.238,5-5,5s-5-2.239-5-5c0-2.419,1.718-4.437,4-4.9V0h2V12.1L258,12.1z M194,220.1
			c2.282,0.464,4,2.481,4,4.9c0,2.762-2.238,5-5,5s-5-2.238-5-5c0-2.419,1.718-4.437,4-4.9V165.9c-2.282-0.464-4-2.481-4-4.9
			c0-2.762,2.238-5,5-5s5,2.238,5,5c0,2.419-1.718,4.437-4,4.9V220.1L194,220.1z M242,21.9c2.282-0.463,4-2.481,4-4.9
			c0-2.761-2.238-5-5-5s-5,2.239-5,5c0,2.419,1.718,4.437,4,4.9V81v1h64v-2h-62l0,0V21.9L242,21.9z M258,37.9
			c2.282-0.463,4-2.481,4-4.9c0-2.761-2.238-5-5-5s-5,2.239-5,5c0,2.419,1.718,4.437,4,4.9V65v1h48v-2h-46l0,0V37.9L258,37.9z
			 M130,133.9c2.282-0.463,4-2.481,4-4.9c0-2.761-2.239-5-5-5s-5,2.239-5,5c0,2.419,1.718,4.437,4,4.9V209v1h16l0,0v10.1
			c-2.282,0.464-4,2.481-4,4.9c0,2.762,2.239,5,5,5s5-2.238,5-5c0-2.419-1.718-4.437-4-4.9V208h-1h-15V133.9L130,133.9z M124.1,112
			c0.463-2.282,2.481-4,4.9-4c2.761,0,5,2.239,5,5s-2.239,5-5,5c-2.419,0-4.437-1.718-4.9-4H114l0,0v48h-1.5H85.9
			c-0.463,2.282-2.481,4-4.9,4c-2.761,0-5-2.238-5-5s2.239-5,5-5c2.419,0,4.437,1.718,4.9,4H112v-47v-1H124.1L124.1,112z M117.9,242
			c-0.463,2.282-2.481,4-4.9,4c-2.761,0-5-2.238-5-5s2.239-5,5-5c2.419,0,4.437,1.718,4.9,4H176v-74.1c-2.282-0.464-4-2.481-4-4.9
			c0-2.762,2.238-5,5-5s5,2.238,5,5c0,2.419-1.718,4.437-4,4.9V242h-1l0,0H117.9L117.9,242z M101.9,178c-0.463,2.282-2.481,4-4.9,4
			c-2.761,0-5-2.238-5-5s2.239-5,5-5c2.419,0,4.437,1.718,4.9,4H114v1v47l0,0h10.1c0.463-2.282,2.481-4,4.9-4c2.761,0,5,2.238,5,5
			s-2.239,5-5,5c-2.419,0-4.437-1.718-4.9-4H112v-1v-47H101.9L101.9,178z M66,284.1c2.282,0.464,4,2.481,4,4.9c0,2.762-2.239,5-5,5
			s-5-2.238-5-5c0-2.419,1.718-4.437,4-4.9V274H50v30h-2v-32h1l0,0h15.5H66V284.1L66,284.1z M236.1,176c0.464-2.282,2.481-4,4.9-4
			c2.762,0,5,2.238,5,5s-2.238,5-5,5c-2.419,0-4.437-1.718-4.9-4H226l0,0v94h48v1v31h-2v-30h-48v-1v-96v-1H236.1L236.1,176z
			 M261.9,146c-0.464,2.282-2.481,4-4.9,4c-2.762,0-5-2.239-5-5s2.238-5,5-5c2.419,0,4.437,1.718,4.9,4H274v1.5l0,0v42.6
			c2.282,0.464,4,2.481,4,4.9c0,2.762-2.238,5-5,5s-5-2.238-5-5c0-2.419,1.718-4.437,4-4.9V146H261.9L261.9,146z M197.9,242
			c-0.464,2.282-2.481,4-4.9,4c-2.762,0-5-2.238-5-5s2.238-5,5-5c2.419,0,4.437,1.718,4.9,4H208l0,0v-80h1h15v-14h-42.1
			c-0.464,2.282-2.481,4-4.9,4c-2.762,0-5-2.239-5-5s2.238-5,5-5c2.419,0,4.437,1.718,4.9,4H226v1v17h-1h-15v79v1H197.9L197.9,242z
			 M284.1,32c0.464-2.282,2.481-4,4.9-4c2.762,0,5,2.239,5,5s-2.238,5-5,5c-2.419,0-4.437-1.718-4.9-4H272v-1V0h2v32l0,0H284.1
			L284.1,32z M98,101.9c2.282-0.463,4-2.481,4-4.9c0-2.761-2.239-5-5-5s-5,2.239-5,5c0,2.419,1.718,4.437,4,4.9V144H53.9
			c-0.463-2.282-2.481-4-4.9-4c-2.761,0-5,2.239-5,5s2.239,5,5,5c2.419,0,4.437-1.718,4.9-4h42.6l0,0H98V101.9L98,101.9z M53.9,34
			c-0.463,2.282-2.481,4-4.9,4c-2.761,0-5-2.239-5-5s2.239-5,5-5c2.419,0,4.437,1.718,4.9,4H80V0h2v34h-1l0,0H53.9L53.9,34z
			 M114,37.9c2.282-0.463,4-2.481,4-4.9c0-2.761-2.239-5-5-5s-5,2.239-5,5c0,2.419,1.718,4.437,4,4.9V64H80v1v63H69.9
			c-0.463-2.282-2.481-4-4.9-4c-2.761,0-5,2.239-5,5s2.239,5,5,5c2.419,0,4.437-1.718,4.9-4H82v-1.5V66l0,0h31h1V37.9L114,37.9z
			 M101.9,82c-0.463,2.282-2.481,4-4.9,4c-2.761,0-5-2.239-5-5s2.239-5,5-5c2.419,0,4.437,1.718,4.9,4H128V37.9
			c-2.282-0.463-4-2.481-4-4.9c0-2.761,2.239-5,5-5s5,2.239,5,5c0,2.419-1.718,4.437-4,4.9V82h-1.5l0,0H101.9L101.9,82z M117.9,18
			c-0.463,2.282-2.481,4-4.9,4c-2.761,0-5-2.239-5-5s2.239-5,5-5c2.419,0,4.437,1.718,4.9,4H146v1l0,0v43.1
			c2.282,0.463,4,2.481,4,4.9c0,2.761-2.239,5-5,5s-5-2.239-5-5c0-2.419,1.718-4.437,4-4.9V18H117.9L117.9,18z M220.1,288
			c0.464-2.282,2.481-4,4.9-4c2.762,0,5,2.238,5,5s-2.238,5-5,5c-2.419,0-4.437-1.718-4.9-4H98v14h-2v-16h1H220.1L220.1,288z
			 M242,149.9c2.282-0.463,4-2.481,4-4.9c0-2.761-2.238-5-5-5s-5,2.239-5,5c0,2.419,1.718,4.437,4,4.9V162h1.5H256v30h-14.5H240v65
			v1h48v46h2v-47v-1h-48l0,0v-62h15h1v-34h-1h-15V149.9L242,149.9z M53.9,18c-0.463,2.282-2.481,4-4.9,4c-2.761,0-5-2.239-5-5
			s2.239-5,5-5c2.419,0,4.437,1.718,4.9,4H64V2H48V0h16.5l0,0H66v18h-1H53.9L53.9,18z M165.9,50c-0.464,2.282-2.481,4-4.9,4
			c-2.762,0-5-2.239-5-5s2.238-5,5-5c2.419,0,4.437,1.718,4.9,4H192V1V0h50v2h-48l0,0v48h-1H165.9L165.9,50z M117.9,2
			c-0.463,2.282-2.481,4-4.9,4c-2.761,0-5-2.239-5-5c0-0.342,0.035-0.677,0.1-1h2.071C110.06,0.313,110,0.649,110,1
			c0,1.657,1.343,3,3,3s3-1.343,3-3c0-0.351-0.06-0.687-0.171-1h1.621h59.05l0,0h1.5v34h-1h-17v-1V21.9c-2.282-0.463-4-2.481-4-4.9
			c0-2.761,2.238-5,5-5s5,2.239,5,5c0,2.419-1.718,4.437-4,4.9V32h14V2H117.9L117.9,2z M117.9,98c-0.463,2.282-2.481,4-4.9,4
			c-2.761,0-5-2.239-5-5s2.239-5,5-5c2.419,0,4.437,1.718,4.9,4H137l32-32h1.414l0,0H208V21.9c-2.282-0.463-4-2.481-4-4.9
			c0-2.761,2.238-5,5-5s5,2.239,5,5c0,2.419-1.718,4.437-4,4.9V66h-1h-39.172l-32,32H136H117.9L117.9,98z M146,188.1
			c2.282,0.464,4,2.481,4,4.9c0,2.762-2.239,5-5,5s-5-2.238-5-5c0-2.419,1.718-4.437,4-4.9v-74.893v-1.621L175.586,80h1.621l0,0H224
			V21.9c-2.282-0.463-4-2.481-4-4.9c0-2.761,2.238-5,5-5s5,2.239,5,5c0,2.419-1.718,4.437-4,4.9V82h-1h-48.586L146,112.414V188.1
			L146,188.1z M162,220.1c2.282,0.464,4,2.481,4,4.9c0,2.762-2.238,5-5,5s-5-2.238-5-5c0-2.419,1.718-4.437,4-4.9v-97.893v-1.621
			L184.586,96h1.621H300.1c0.398-1.959,1.941-3.502,3.9-3.9v2.071c-1.165,0.412-2,1.523-2,2.829s0.835,2.417,2,2.829v2.071
			c-1.959-0.397-3.502-1.941-3.9-3.9H185.414l0,0L162,121.414V220.1L162,220.1z M18,156.1c2.282,0.464,4,2.481,4,4.9
			c0,2.762-2.239,5-5,5s-5-2.238-5-5c0-2.419,1.718-4.437,4-4.9v-1.893v-1.621l48-48l0,0V48h1h31V0h2v48.5V50H66v53.793v1.621
			l-48,48V156.1L18,156.1z M50,53.9c2.282-0.463,4-2.481,4-4.9c0-2.761-2.239-5-5-5s-5,2.239-5,5c0,2.419,1.718,4.437,4,4.9v42.686
			l-48,48l0,0v1.621V209v1h28.1c0.463,2.282,2.481,4,4.9,4c2.761,0,5-2.238,5-5s-2.239-5-5-5c-2.419,0-4.437,1.718-4.9,4H2v-62.586
			l0,0l48-48v-1.621V53.9L50,53.9z M34,69.9c2.282-0.463,4-2.481,4-4.9c0-2.761-2.239-5-5-5s-5,2.239-5,5c0,2.419,1.718,4.437,4,4.9
			v18.686l-32,32l0,0v2.828l34-34v-1.621l0,0V69.9L34,69.9z M12.1,32c0.463-2.282,2.481-4,4.9-4c2.761,0,5,2.239,5,5s-2.239,5-5,5
			c-2.419,0-4.437-1.718-4.9-4H9.414L0,43.414v-2.828l0,0L8.586,32h1.621l0,0H12.1L12.1,32z M277.9,50c-0.464,2.282-2.481,4-4.9,4
			c-2.762,0-5-2.239-5-5s2.238-5,5-5c2.419,0,4.437,1.718,4.9,4h18.686l0,0L304,40.586v2.828L297.414,50h-1.621H277.9L277.9,50z
			 M261.9,210c-0.464,2.282-2.481,4-4.9,4c-2.762,0-5-2.238-5-5s2.238-5,5-5c2.419,0,4.437,1.718,4.9,4H288v-69.793v-1.621l16-16
			v2.828l-14,14l0,0V210h-1H261.9L261.9,210z M53.9,242c-0.463,2.282-2.481,4-4.9,4c-2.761,0-5-2.238-5-5s2.239-5,5-5
			c2.419,0,4.437,1.718,4.9,4H64v-22.586L40.586,194H21.9c-0.463,2.282-2.481,4-4.9,4c-2.761,0-5-2.238-5-5s2.239-5,5-5
			c2.419,0,4.437,1.718,4.9,4h17.893h1.621L66,216.586l0,0v1.621l0,0V242h-1H53.9L53.9,242z M204.1,256c0.464-2.282,2.481-4,4.9-4
			c2.762,0,5,2.238,5,5s-2.238,5-5,5c-2.419,0-4.437-1.718-4.9-4H96v-1.5v-55.098L56.598,162H37.9c-0.463,2.282-2.481,4-4.9,4
			c-2.761,0-5-2.238-5-5s2.239-5,5-5c2.419,0,4.437,1.718,4.9,4h17.899h1.603L98,200.598l0,0v1.201l0,0V256H204.1L204.1,256z
			 M53.9,258c-0.463,2.282-2.481,4-4.9,4c-2.761,0-5-2.238-5-5s2.239-5,5-5c2.419,0,4.437,1.718,4.9,4H80v-46.586L48.586,178H21.9
			c-0.463,2.282-2.481,4-4.9,4c-2.761,0-5-2.238-5-5s2.239-5,5-5c2.419,0,4.437,1.718,4.9,4h25.893h1.621L82,208.586l0,0v1.621l0,0
			V258h-1H53.9L53.9,258z M97,100c1.657,0,3-1.343,3-3s-1.343-3-3-3s-3,1.343-3,3S95.343,100,97,100L97,100z M97,84
			c1.657,0,3-1.343,3-3s-1.343-3-3-3s-3,1.343-3,3S95.343,84,97,84L97,84z M113,100c1.657,0,3-1.343,3-3s-1.343-3-3-3s-3,1.343-3,3
			S111.343,100,113,100L113,100z M129,116c1.657,0,3-1.343,3-3s-1.343-3-3-3s-3,1.343-3,3S127.343,116,129,116L129,116z M129,132
			c1.657,0,3-1.343,3-3s-1.343-3-3-3s-3,1.343-3,3S127.343,132,129,132L129,132z M81,164c1.657,0,3-1.344,3-3s-1.343-3-3-3
			s-3,1.344-3,3S79.343,164,81,164L81,164z M97,180c1.657,0,3-1.344,3-3s-1.343-3-3-3s-3,1.344-3,3S95.343,180,97,180L97,180z
			 M129,228c1.657,0,3-1.344,3-3s-1.343-3-3-3s-3,1.344-3,3S127.343,228,129,228L129,228z M113,244c1.657,0,3-1.344,3-3
			s-1.343-3-3-3s-3,1.344-3,3S111.343,244,113,244L113,244z M145,228c1.657,0,3-1.344,3-3s-1.343-3-3-3s-3,1.344-3,3
			S143.343,228,145,228L145,228z M145,196c1.657,0,3-1.344,3-3s-1.343-3-3-3s-3,1.344-3,3S143.343,196,145,196L145,196z M161,228
			c1.656,0,3-1.344,3-3s-1.344-3-3-3s-3,1.344-3,3S159.344,228,161,228L161,228z M193,244c1.656,0,3-1.344,3-3s-1.344-3-3-3
			s-3,1.344-3,3S191.344,244,193,244L193,244z M193,228c1.656,0,3-1.344,3-3s-1.344-3-3-3s-3,1.344-3,3S191.344,228,193,228L193,228
			z M177,164c1.656,0,3-1.344,3-3s-1.344-3-3-3s-3,1.344-3,3S175.344,164,177,164L177,164z M193,164c1.656,0,3-1.344,3-3
			s-1.344-3-3-3s-3,1.344-3,3S191.344,164,193,164L193,164z M209,260c1.656,0,3-1.344,3-3s-1.344-3-3-3s-3,1.344-3,3
			S207.344,260,209,260L209,260z M209,276c1.656,0,3-1.344,3-3s-1.344-3-3-3s-3,1.344-3,3S207.344,276,209,276L209,276z M225,292
			c1.656,0,3-1.344,3-3s-1.344-3-3-3s-3,1.344-3,3S223.344,292,225,292L225,292z M241,148c1.656,0,3-1.343,3-3s-1.344-3-3-3
			s-3,1.343-3,3S239.344,148,241,148L241,148z M241,180c1.656,0,3-1.344,3-3s-1.344-3-3-3s-3,1.344-3,3S239.344,180,241,180L241,180
			z M257,148c1.656,0,3-1.343,3-3s-1.344-3-3-3s-3,1.343-3,3S255.344,148,257,148L257,148z M273,132c1.656,0,3-1.343,3-3
			s-1.344-3-3-3s-3,1.343-3,3S271.344,132,273,132L273,132z M177,132c1.656,0,3-1.343,3-3s-1.344-3-3-3s-3,1.343-3,3
			S175.344,132,177,132L177,132z M177,148c1.656,0,3-1.343,3-3s-1.344-3-3-3s-3,1.343-3,3S175.344,148,177,148L177,148z M193,116
			c1.656,0,3-1.343,3-3s-1.344-3-3-3s-3,1.343-3,3S191.344,116,193,116L193,116z M289,116c1.656,0,3-1.343,3-3s-1.344-3-3-3
			s-3,1.343-3,3S287.344,116,289,116L289,116z M273,52c1.656,0,3-1.343,3-3s-1.344-3-3-3s-3,1.343-3,3S271.344,52,273,52L273,52z
			 M289,36c1.656,0,3-1.343,3-3s-1.344-3-3-3s-3,1.343-3,3S287.344,36,289,36L289,36z M257,36c1.656,0,3-1.343,3-3s-1.344-3-3-3
			s-3,1.343-3,3S255.344,36,257,36L257,36z M257,20c1.656,0,3-1.343,3-3s-1.344-3-3-3s-3,1.343-3,3S255.344,20,257,20L257,20z
			 M241,20c1.656,0,3-1.343,3-3s-1.344-3-3-3s-3,1.343-3,3S239.344,20,241,20L241,20z M225,20c1.656,0,3-1.343,3-3s-1.344-3-3-3
			s-3,1.343-3,3S223.344,20,225,20L225,20z M209,20c1.656,0,3-1.343,3-3s-1.344-3-3-3s-3,1.343-3,3S207.344,20,209,20L209,20z
			 M49,36c1.657,0,3-1.343,3-3s-1.343-3-3-3s-3,1.343-3,3S47.343,36,49,36L49,36z M17,36c1.657,0,3-1.343,3-3s-1.343-3-3-3
			s-3,1.343-3,3S15.343,36,17,36L17,36z M49,52c1.657,0,3-1.343,3-3s-1.343-3-3-3s-3,1.343-3,3S47.343,52,49,52L49,52z M33,68
			c1.657,0,3-1.343,3-3s-1.343-3-3-3s-3,1.343-3,3S31.343,68,33,68L33,68z M49,20c1.657,0,3-1.343,3-3s-1.343-3-3-3s-3,1.343-3,3
			S47.343,20,49,20L49,20z M49,260c1.657,0,3-1.344,3-3s-1.343-3-3-3s-3,1.344-3,3S47.343,260,49,260L49,260z M65,292
			c1.657,0,3-1.344,3-3s-1.343-3-3-3s-3,1.344-3,3S63.343,292,65,292L65,292z M49,228c1.657,0,3-1.344,3-3s-1.343-3-3-3
			s-3,1.344-3,3S47.343,228,49,228L49,228z M49,244c1.657,0,3-1.344,3-3s-1.343-3-3-3s-3,1.344-3,3S47.343,244,49,244L49,244z
			 M33,212c1.657,0,3-1.344,3-3s-1.343-3-3-3s-3,1.344-3,3S31.343,212,33,212L33,212z M113,36c1.657,0,3-1.343,3-3s-1.343-3-3-3
			s-3,1.343-3,3S111.343,36,113,36L113,36z M129,36c1.657,0,3-1.343,3-3s-1.343-3-3-3s-3,1.343-3,3S127.343,36,129,36L129,36z
			 M113,20c1.657,0,3-1.343,3-3s-1.343-3-3-3s-3,1.343-3,3S111.343,20,113,20L113,20z M145,68c1.657,0,3-1.343,3-3s-1.343-3-3-3
			s-3,1.343-3,3S143.343,68,145,68L145,68z M161,52c1.656,0,3-1.343,3-3s-1.344-3-3-3s-3,1.343-3,3S159.344,52,161,52L161,52z
			 M161,20c1.656,0,3-1.343,3-3s-1.344-3-3-3s-3,1.343-3,3S159.344,20,161,20L161,20z M273,196c1.656,0,3-1.344,3-3s-1.344-3-3-3
			s-3,1.344-3,3S271.344,196,273,196L273,196z M257,212c1.656,0,3-1.344,3-3s-1.344-3-3-3s-3,1.344-3,3S255.344,212,257,212L257,212
			z M257,228c1.656,0,3-1.344,3-3s-1.344-3-3-3s-3,1.344-3,3S255.344,228,257,228L257,228z M257,244c1.656,0,3-1.344,3-3
			s-1.344-3-3-3s-3,1.344-3,3S255.344,244,257,244L257,244z M17,180c1.657,0,3-1.344,3-3s-1.343-3-3-3s-3,1.344-3,3
			S15.343,180,17,180L17,180z M17,196c1.657,0,3-1.344,3-3s-1.343-3-3-3s-3,1.344-3,3S15.343,196,17,196L17,196z M17,164
			c1.657,0,3-1.344,3-3s-1.343-3-3-3s-3,1.344-3,3S15.343,164,17,164L17,164z M33,164c1.657,0,3-1.344,3-3s-1.343-3-3-3
			s-3,1.344-3,3S31.343,164,33,164L33,164z M17,84c1.657,0,3-1.343,3-3s-1.343-3-3-3s-3,1.343-3,3S15.343,84,17,84L17,84z M49,148
			c1.657,0,3-1.343,3-3s-1.343-3-3-3s-3,1.343-3,3S47.343,148,49,148L49,148z M65,132c1.657,0,3-1.343,3-3s-1.343-3-3-3
			s-3,1.343-3,3S63.343,132,65,132L65,132z M34,39.793V0h-2v40.586L8.586,64H0v2h7.793h1.621L34,41.414V39.793L34,39.793L34,39.793z
			 M2,300.1V258h14v46h2v-47v-1H1H0v44.55v1.621C0.313,302.061,0.649,302,1,302c1.306,0,2.417,0.835,2.829,2H5.9
			C5.502,302.041,3.959,300.498,2,300.1L2,300.1L2,300.1z M34,241v63h-2v-62H0v-2h34V241L34,241L34,241z M17,18h1V0h-2v16H0v2H17
			L17,18L17,18z M290,16V0h-2v17v1h16v-2H290L290,16z M258,289v15h-2v-14h-14v14h-2v-16h1h17V289L258,289z M0,92.1
			C0.323,92.034,0.658,92,1,92c2.761,0,5,2.239,5,5s-2.239,5-5,5c-0.342,0-0.677-0.034-1-0.1v-2.071C0.313,99.94,0.649,100,1,100
			c1.657,0,3-1.343,3-3s-1.343-3-3-3c-0.351,0-0.687,0.06-1,0.171V92.1L0,92.1L0,92.1z M80,272h2v32h-2V272L80,272z M117.9,304
			c-0.463-2.282-2.481-4-4.9-4s-4.437,1.718-4.9,4h2.071c0.412-1.165,1.523-2,2.829-2s2.417,0.835,2.829,2H117.9L117.9,304
			L117.9,304z M5.9,0C5.965,0.323,6,0.658,6,1c0,2.761-2.239,5-5,5C0.658,6,0.323,5.966,0,5.9V3.829C0.313,3.94,0.649,4,1,4
			c1.657,0,3-1.343,3-3c0-0.351-0.06-0.687-0.171-1H5.9L5.9,0L5.9,0z M300.1,0c-0.065,0.323-0.1,0.658-0.1,1
			c0,2.419,1.718,4.437,4,4.9V3.829c-1.165-0.412-2-1.523-2-2.829c0-0.351,0.061-0.687,0.171-1H300.1L300.1,0L300.1,0z M304,300.1
			c-1.959,0.398-3.502,1.941-3.9,3.9h2.071c0.302-0.853,0.977-1.528,1.829-1.829V300.1L304,300.1z"/>
	</g>
</g>
</svg>
