<?xml version="1.0" encoding="utf-8"?>
<!-- Generator: Adobe Illustrator 16.0.0, SVG Export Plug-In . SVG Version: 6.00 Build 0)  -->
<!DOCTYPE svg PUBLIC "-//W3C//DTD SVG 1.1//EN" "http://www.w3.org/Graphics/SVG/1.1/DTD/svg11.dtd">
<svg version="1.1" id="Layer_1" xmlns="http://www.w3.org/2000/svg" xmlns:xlink="http://www.w3.org/1999/xlink" x="0px" y="0px"
	 width="800px" height="800px" viewBox="0 0 800 800" enable-background="new 0 0 800 800" xml:space="preserve">
<rect x="1" y="0" fill="#C1C1C1" width="800" height="800"/>
<path fill="#FFFFFF" d="M166.162,601.408c0-40.841,37.118-73.23,84.095-73.23h300.621c46.976,0,83.962,32.39,83.962,73.23v266.756
	H166.162V601.408z"/>
<g>
	<g>
		<path fill="#F7C19C" d="M569.624,494.654c0,38.289-30.998,70.913-65.153,70.913H285.877c-34.163,0-55.37-32.624-55.37-70.913
			V254.276h339.117V494.654z"/>
		<path fill="#FFFFFF" d="M342.435,346.446h-17.154H297.46v40.801c0,0,2.541,23.543,24.208,23.543c1.402,0,2.692,0,3.909,0
			c0,0,2.811,0,16.56,0c1.214,0,2.519,0,3.92,0c21.66,0,26.183-23.543,26.183-23.543v-40.801H342.435z"/>
		<path fill="#FFFFFF" d="M474.749,346.446h-17.153H428.76v40.801c0,0,3.556,23.543,25.224,23.543c1.401,0,2.69,0,3.909,0
			c0,0,2.81,0,16.56,0c1.215,0,2.519,0,3.92,0c21.662,0,26.906-23.543,26.906-23.543v-40.801H474.749z"/>
		<rect x="297.46" y="336.011" fill="#632F1A" width="81.736" height="10.435"/>
		<rect x="420.934" y="336.011" fill="#632F1A" width="84.345" height="10.435"/>
		<path d="M569.624,157.303c0-23.773-2.088-37.805-32.339-37.805H255.51c-30.265,0-25.003,14.032-25.003,37.805v96.972h339.117
			V157.303z"/>
		<rect x="382.675" y="425.573" fill="#C1947A" width="32.173" height="6.956"/>
		<rect x="297.46" y="306.448" fill="#DDAC8C" width="206.079" height="5.217"/>
		<rect x="321.808" y="293.405" fill="#DDAC8C" width="157.385" height="5.217"/>
		<rect x="230.507" y="201.234" fill="#1A1A1A" width="339.117" height="35.651"/>
		<rect x="544.407" y="269.057" fill="#632F1A" width="25.217" height="126.082"/>
		<rect x="230.507" y="269.057" fill="#632F1A" width="25.216" height="126.082"/>
		<path d="M349.632,383.178c0,2.765-2.242,5.005-5.006,5.005h-17.812c-2.765,0-5.006-2.24-5.006-5.005v-17.813
			c0-2.765,2.242-5.006,5.006-5.006h17.812c2.765,0,5.006,2.242,5.006,5.006V383.178z"/>
		<path d="M478.323,383.178c0,2.765-2.242,5.005-5.007,5.005h-17.812c-2.765,0-5.007-2.24-5.007-5.005v-17.813
			c0-2.765,2.242-5.006,5.007-5.006h17.812c2.765,0,5.007,2.242,5.007,5.006V383.178z"/>
		<rect x="212.247" y="365.575" fill="#C1947A" width="18.26" height="42.607"/>
		<rect x="569.624" y="365.575" fill="#C1947A" width="18.26" height="42.607"/>
		<path fill="#632F1A" d="M307.043,507.308h186.158c0,0,0-45.881-93.074-45.881C307.043,461.427,307.043,507.308,307.043,507.308z"
			/>
		<path fill="#C1947A" d="M326.198,495.917"/>
		<path d="M626.003,253.417c0-8.608-5.946-15.663-15.511-15.663H189.639c0,0-0.286-0.037-0.349-0.037
			c-8.671,0-15.779,7.015-15.779,15.685s7.15,15.691,15.819,15.691c0.063,0,0.309-0.015,0.309-0.016v-0.021h420.854v0.021
			C620.057,268.976,626.003,262.023,626.003,253.417z"/>
	</g>
</g>
<rect x="453.106" y="642.956" fill="#D1D1D1" width="80.866" height="5.217"/>
<polygon fill="#93242C" points="375.718,585.566 425.281,585.566 400.5,626.723 "/>
<polygon fill="#93242C" points="400.5,600.637 379.196,769.905 399.63,801.789 420.064,770.486 "/>
<polygon fill="#FFFFFF" points="370.211,608.463 400.065,577.632 277.082,576.983 "/>
<polygon fill="#FFFFFF" points="430.499,608.572 400.065,577.741 507.854,577.741 "/>
<rect x="240.941" y="682.085" fill="#F4F4F4" width="6.087" height="50.433"/>
<rect x="552.233" y="682.085" fill="#F4F4F4" width="6.087" height="50.433"/>
</svg>
